<svg width="24" height="24" viewBox="0 0 24 24" fill="none" xmlns="http://www.w3.org/2000/svg">
<g id="vuesax/bulk/gallery">
<g id="gallery">
<path id="Vector" opacity="0.4" d="M22 7.81V13.9L20.37 12.5C19.59 11.83 18.33 11.83 17.55 12.5L13.39 16.07C12.61 16.74 11.35 16.74 10.57 16.07L10.23 15.79C9.52 15.17 8.39 15.11 7.59 15.65L2.67 18.95L2.56 19.03C2.19 18.23 2 17.28 2 16.19V7.81C2 4.17 4.17 2 7.81 2H16.19C19.83 2 22 4.17 22 7.81Z" fill="#85858D"/>
<path id="Vector_2" d="M9.00012 10.38C10.3146 10.38 11.3801 9.31444 11.3801 8C11.3801 6.68556 10.3146 5.62 9.00012 5.62C7.68568 5.62 6.62012 6.68556 6.62012 8C6.62012 9.31444 7.68568 10.38 9.00012 10.38Z" fill="#85858D"/>
<path id="Vector_3" d="M21.9996 13.9V16.19C21.9996 19.83 19.8296 22 16.1896 22H7.80957C5.25957 22 3.41957 20.93 2.55957 19.03L2.66957 18.95L7.58957 15.65C8.38957 15.11 9.51957 15.17 10.2296 15.79L10.5696 16.07C11.3496 16.74 12.6096 16.74 13.3896 16.07L17.5496 12.5C18.3296 11.83 19.5896 11.83 20.3696 12.5L21.9996 13.9Z" fill="#85858D"/>
</g>
</g>
</svg>
